HIERARCHY
ROOT hip
{
  OFFSET 0 0 0
  CHANNELS 6 Xposition Yposition Zposition Zrotation Yrotation Xrotation
  JOINT abdomen
  {
    OFFSET 0 20.6881 -0.73152
    CHANNELS 3 Zrotation Xrotation Yrotation
    JOINT chest
    {
      OFFSET 0 11.7043 -0.48768
      CHANNELS 3 Zrotation Xrotation Yrotation
      JOINT neck
      {
        OFFSET 0 22.1894 -2.19456
        CHANNELS 3 Zrotation Xrotation Yrotation
        JOINT head
        {
          OFFSET -0.24384 7.07133 1.2192
          CHANNELS 3 Zrotation Xrotation Yrotation
          JOINT leftEye
          {
            OFFSET 4.14528 8.04674 8.04672
            CHANNELS 3 Zrotation Xrotation Yrotation
            End Site
            {
              OFFSET 1 0 0
            }
          }
          JOINT rightEye
          {
            OFFSET -3.6576 8.04674 8.04672
            CHANNELS 3 Zrotation Xrotation Yrotation
            End Site
            {
              OFFSET 1 0 0
            }
          }
        }
      }
      JOINT rCollar
      {
        OFFSET -2.68224 19.2634 -4.8768
        CHANNELS 3 Zrotation Xrotation Yrotation
        JOINT rShldr
        {
          OFFSET -8.77824 -1.95073 1.46304
          CHANNELS 3 Zrotation Xrotation Yrotation
          JOINT rForeArm
          {
            OFFSET -28.1742 -1.7115 0.48768
            CHANNELS 3 Zrotation Xrotation Yrotation
            JOINT rHand
            {
              OFFSET -22.5879 0.773209 7.07136
              CHANNELS 3 Zrotation Xrotation Yrotation
              JOINT rThumb1
              {
                OFFSET -1.2192 -0.487915 3.41376
                CHANNELS 3 Zrotation Xrotation Yrotation
                JOINT rThumb2
                {
                  OFFSET -3.37035 -0.52449 3.41376
                  CHANNELS 3 Zrotation Xrotation Yrotation
                  End Site
                  {
                    OFFSET -1.78271 -1.18214 1.43049
                  }
                }
              }
              JOINT rIndex1
              {
                OFFSET -7.75947 0.938293 5.60832
                CHANNELS 3 Zrotation Xrotation Yrotation
                JOINT rIndex2
                {
                  OFFSET -2.54057 -0.884171 1.56538
                  CHANNELS 3 Zrotation Xrotation Yrotation
                  End Site
                  {
                    OFFSET -1.62519 -0.234802 1.16502
                  }
                }
              }
              JOINT rMid1
              {
                OFFSET -8.24714 1.18213 3.41376
                CHANNELS 3 Zrotation Xrotation Yrotation
                JOINT rMid2
                {
                  OFFSET -3.10165 -0.590103 1.0647
                  CHANNELS 3 Zrotation Xrotation Yrotation
                  End Site
                  {
                    OFFSET -2.48547 -0.328903 0.83742
                  }
                }
              }
              JOINT rRing1
              {
                OFFSET -8.82822 0.546677 1.51678
                CHANNELS 3 Zrotation Xrotation Yrotation
                JOINT rRing2
                {
                  OFFSET -2.60934 -0.819778 -0.0198488
                  CHANNELS 3 Zrotation Xrotation Yrotation
                  End Site
                  {
                    OFFSET -2.33842 -0.294052 0.168128
                  }
                }
              }
              JOINT rPinky1
              {
                OFFSET -8.27202 -0.0477905 -0.4584
                CHANNELS 3 Zrotation Xrotation Yrotation
                JOINT rPinky2
                {
                  OFFSET -1.82734 -0.647385 -0.700984
                  CHANNELS 3 Zrotation Xrotation Yrotation
                  End Site
                  {
                    OFFSET -1.69225 -0.51767 -0.607171
                  }
                }
              }
            }
          }
        }
      }
      JOINT lCollar
      {
        OFFSET 2.68224 19.2634 -4.8768
        CHANNELS 3 Zrotation Xrotation Yrotation
        JOINT lShldr
        {
          OFFSET 8.77824 -1.95073 1.46304
          CHANNELS 3 Zrotation Xrotation Yrotation
          JOINT lForeArm
          {
            OFFSET 28.1742 -1.7115 0.48768
            CHANNELS 3 Zrotation Xrotation Yrotation
            JOINT lHand
            {
              OFFSET 22.5879 0.773209 7.07136
              CHANNELS 3 Zrotation Xrotation Yrotation
              JOINT lThumb1
              {
                OFFSET 1.2192 -0.487915 3.41376
                CHANNELS 3 Zrotation Xrotation Yrotation
                JOINT lThumb2
                {
                  OFFSET 3.37035 -0.52449 3.41376
                  CHANNELS 3 Zrotation Xrotation Yrotation
                  End Site
                  {
                    OFFSET 1.78271 -1.18214 1.43049
                  }
                }
              }
              JOINT lIndex1
              {
                OFFSET 7.75947 0.938293 5.60832
                CHANNELS 3 Zrotation Xrotation Yrotation
                JOINT lIndex2
                {
                  OFFSET 2.54057 -0.884171 1.56538
                  CHANNELS 3 Zrotation Xrotation Yrotation
                  End Site
                  {
                    OFFSET 1.62519 -0.234802 1.16502
                  }
                }
              }
              JOINT lMid1
              {
                OFFSET 8.24714 1.18213 3.41376
                CHANNELS 3 Zrotation Xrotation Yrotation
                JOINT lMid2
                {
                  OFFSET 3.10165 -0.590103 1.0647
                  CHANNELS 3 Zrotation Xrotation Yrotation
                  End Site
                  {
                    OFFSET 2.48547 -0.328903 0.83742
                  }
                }
              }
              JOINT lRing1
              {
                OFFSET 8.82822 0.546677 1.51678
                CHANNELS 3 Zrotation Xrotation Yrotation
                JOINT lRing2
                {
                  OFFSET 2.60934 -0.819778 -0.0198488
                  CHANNELS 3 Zrotation Xrotation Yrotation
                  End Site
                  {
                    OFFSET 2.33842 -0.294052 0.168128
                  }
                }
              }
              JOINT lPinky1
              {
                OFFSET 8.27202 -0.0477905 -0.4584
                CHANNELS 3 Zrotation Xrotation Yrotation
                JOINT lPinky2
                {
                  OFFSET 1.82734 -0.647385 -0.700984
                  CHANNELS 3 Zrotation Xrotation Yrotation
                  End Site
                  {
                    OFFSET 1.69225 -0.51767 -0.607171
                  }
                }
              }
            }
          }
        }
      }
    }
  }
  JOINT rButtock
  {
    OFFSET -8.77824 4.35084 1.2192
    CHANNELS 3 Zrotation Xrotation Yrotation
    JOINT rThigh
    {
      OFFSET 0 -1.70687 -2.19456
      CHANNELS 3 Zrotation Xrotation Yrotation
      JOINT rShin
      {
        OFFSET 0 -36.8199 0.73152
        CHANNELS 3 Zrotation Xrotation Yrotation
        JOINT rFoot
        {
          OFFSET 0.73152 -45.1104 -5.12064
          CHANNELS 3 Zrotation Xrotation Yrotation
          End Site
          {
            OFFSET -1.1221 -3.69964 12.103
          }
        }
      }
    }
  }
  JOINT lButtock
  {
    OFFSET 8.77824 4.35084 1.2192
    CHANNELS 3 Zrotation Xrotation Yrotation
    JOINT lThigh
    {
      OFFSET 0 -1.70687 -2.19456
      CHANNELS 3 Zrotation Xrotation Yrotation
      JOINT lShin
      {
        OFFSET 0 -36.8199 0.73152
        CHANNELS 3 Zrotation Xrotation Yrotation
        JOINT lFoot
        {
          OFFSET -0.73152 -45.1104 -5.12064
          CHANNELS 3 Zrotation Xrotation Yrotation
          End Site
          {
            OFFSET 1.1221 -3.69964 12.103
          }
        }
      }
    }
  }
}
MOTION
Frames:	4
Frame Time:	0.00833333
0.053761713 82.787094 -0.019730814 125.63381 5.705166 -110.70475 6.145225 -3.417726 0.38882044 -2.2269382 1.1859299 -0.14739643 1.8571535 6.819266 0.6068341 -0.9229267 11.650917 3.095595 0.06359333 -0.024159646 0.043276157 0.007762776 -0.0042098844 -0.036226507 0.05912014 0.029748073 0.0037865927 71.90317 13.330502 3.4630303 -27.269281 -29.685213 67.47705 -1.6054152 -32.291245 -3.0709088 0.15786584 0.032355405 -0.07373667 0.008648407 0.07377935 -0.10227114 0.081096485 0.09892968 0.08738875 7.882019 5.527421 0.48710382 -0.11741214 -0.046714116 0.078970164 2.8741076 1.0016687 0.13564414 0.0583415 0.112127036 -0.09283577 10.4236555 0.81271875 0.07728956 0.10618521 0.03707029 0.024490602 2.3630166 -0.8378162 -0.34564698 -0.15815532 -0.13972 0.0029953313 -80.60553 44.699226 4.6519327 27.56538 -34.66309 -75.53301 29.991028 -71.64355 36.797768 0.06926959 -0.079834394 -0.15158916 0.10723151 -0.1565284 -0.1528068 -0.029588325 0.055825002 -0.1623784 -7.7908096 5.4575744 -0.502738 -0.08994932 -0.0001781452 -0.21545468 -3.0452738 1.0240219 -0.18596715 -0.082845464 -9.647642e-05 -0.00022208785 -10.42977 0.89095086 -0.13690986 -0.05091032 0.1198391 0.06083601 -2.5073612 -0.79664594 0.23553137 -0.077184334 0.15313785 -0.107751325 -0.03896081 -23.876831 -3.55207 -0.22134891 28.950104 0.78507113 -5.545172 -13.967028 -18.817667 0.036808208 -0.042711627 -0.034204226 13.492419 -37.586452 20.143282 1.2182094 47.34382 -1.399736 1.5054741 -0.9059733 4.6276565
-0.5917455 83.545845 0.16192868 184.90202 1.220495 -174.72093 6.0276866 -3.903346 1.8917676 -2.1486936 1.3442746 0.8320715 3.4456007 9.747013 0.8387468 -6.9446626 12.714135 3.0139225 0.05093987 -0.015122745 0.041967362 0.06350245 0.009598716 0.03451881 0.0653007 0.059225913 0.021148825 66.91911 12.265587 0.48489195 -28.430317 -30.951878 69.54045 -1.7769266 -37.21202 -5.643819 0.07525305 0.030930776 -0.139748 -0.025209319 0.03137861 -0.096739806 0.09427565 0.0075307633 0.061111193 7.848173 5.5049877 0.5323229 -0.014547681 -0.040911656 0.02149882 2.9308903 1.0700749 0.21638893 0.06589766 -0.008578404 -0.09561964 10.411966 0.8731041 0.12115309 -0.06761791 -0.024732007 0.024873413 2.36168 -0.8989349 -0.3630877 -0.10334025 -0.094571434 0.11872629 -81.413475 43.03409 6.33694 29.019867 -34.660126 -74.68164 28.032524 -74.43096 34.123688 0.054653384 -0.061769824 -0.05498841 0.04365579 -0.109750465 -0.118433714 -0.051022045 0.026185516 -0.101098426 -7.7771306 5.4914837 -0.5682147 -0.062813245 0.014189264 -0.14030184 -3.0610158 1.0918475 -0.20189272 -0.054848924 0.033071186 -0.0020785118 -10.389319 0.9324309 -0.059001625 0.048113663 0.088495605 0.056896113 -2.4737847 -0.87018096 0.30344495 -0.10497811 0.10898313 -0.0153656835 -1.649396 -25.7112 -7.553871 0.02089184 31.401875 1.2028494 -5.1658964 -10.389751 -19.15844 0.06641049 0.005247399 0.009099866 11.076286 -33.760254 18.633364 0.8818781 47.029953 -1.2398589 2.8113983 -4.0769734 9.994749
-1.5405458 83.77368 0.21862584 181.85841 -1.8918062 -168.82785 4.1437187 -3.8209033 0.93477225 -0.33984673 1.0844992 1.03765 1.6468872 9.19564 0.6937231 -6.6350613 12.427289 1.2024052 0.05468409 -0.00066729076 0.063424826 0.05179092 -0.006991065 0.015767865 0.044063523 0.058542002 0.028901303 66.65353 14.142418 -2.028636 -28.22575 -31.000027 69.47904 -2.2498422 -38.142788 -6.7158575 0.08039714 0.08093144 -0.1173503 -0.029738216 0.037059672 -0.102297075 0.083571576 -0.035427283 0.06642108 7.763884 5.41288 0.47619292 -0.019708863 0.008677328 0.049066156 2.8307884 0.97694796 0.19091131 0.04814803 0.008348606 -0.105766624 10.343255 0.7924844 0.12142347 -0.060597114 -0.014114345 0.009351916 2.2877052 -0.8448849 -0.31451353 -0.09141063 -0.12771305 0.12610637 -78.8174 41.19646 3.3648117 29.06302 -34.29055 -73.61225 29.632917 -76.419106 36.31076 0.062315255 -0.064460225 -0.060659282 0.06384711 -0.0968255 -0.10552733 -0.04959939 0.038021915 -0.09200157 -7.716666 5.422396 -0.48195988 -0.05820041 0.06251797 -0.14556551 -2.9472752 0.9784502 -0.18413801 -0.082317114 0.026199324 0.0074240416 -10.314207 0.8433729 -0.042893853 0.03625627 0.05628665 0.042029247 -2.3870618 -0.78610414 0.2832473 -0.100311354 0.08079783 -0.03176299 -7.193853 -26.222765 -15.429844 0.13722159 35.36279 0.79396385 -3.7326427 -5.494817 -18.806982 0.043959603 -0.00482905 0.008888717 4.758223 -25.708746 9.791821 0.5748616 36.2572 -0.5617043 2.6268663 -10.111679 11.001963
-2.843836 83.95908 0.523425 178.9054 -5.5518637 -169.2462 3.959465 -3.5893614 0.5388708 -0.106052235 0.48372358 0.8001068 0.5025626 7.028674 1.3326303 -8.974807 13.528565 0.60010695 0.05300856 0.019544465 0.06400721 0.04361684 -0.010295256 -0.012489774 0.01878502 0.04623771 0.025921421 69.77073 17.555882 -2.7444532 -27.785831 -30.2143 67.86837 -2.149814 -37.651306 -7.093647 0.093735166 0.09042508 -0.08588375 -0.030228922 0.051587295 -0.11502593 0.056599747 -0.05170106 0.08118667 7.644862 5.305466 0.42526639 -0.030991422 0.05800874 0.05970396 2.7378337 0.8991462 0.14847465 0.035429843 0.030069312 -0.11733726 10.228044 0.73651314 0.10494724 -0.04017261 -0.0026958436 0.012181215 2.2067235 -0.7872006 -0.26376674 -0.089084364 -0.14839081 0.10161904 -74.01588 40.51244 0.6594275 28.684017 -32.936974 -71.53961 27.082264 -77.34003 34.057423 0.043954186 -0.0696969 -0.06899926 0.07596227 -0.080004886 -0.11333327 -0.049749922 0.042207725 -0.09657343 -7.6060853 5.3337946 -0.41788062 -0.04523458 0.08857912 -0.14885314 -2.8393576 0.8904718 -0.13935186 -0.093349285 0.023888372 0.01164814 -10.18847 0.74649006 -0.045692362 0.020156408 0.0380338 0.0318568 -2.2951822 -0.701667 0.25112522 -0.09515902 0.07796834 -0.041236997 -10.699815 -29.427298 -19.015867 -0.3324445 41.877815 0.9620246 -3.0825014 -2.8266728 -18.075613 0.030213928 -0.03570652 0.013567129 0.46992627 -20.947687 5.7290287 0.33895937 27.535376 -0.27509525 4.1358166 -13.1733265 10.980715
